<mxfile host="app.diagrams.net" modified="2024-01-05T17:13:16.111Z" agent="Mozilla/5.0 (Windows NT 10.0; Win64; x64) AppleWebKit/537.36 (KHTML, like Gecko) Chrome/120.0.0.0 Safari/537.36" etag="2XB0Rqf-ar2cBRkgWN5x" version="22.1.16" type="device">
  <diagram id="prtHgNgQTEPvFCAcTncT" name="Page-1">
    <mxGraphModel dx="1434" dy="780" grid="1" gridSize="10" guides="1" tooltips="1" connect="1" arrows="1" fold="1" page="1" pageScale="1" pageWidth="827" pageHeight="1169" math="0" shadow="0">
      <root>
        <mxCell id="0" />
        <mxCell id="1" parent="0" />
        <mxCell id="M41f0v_ypMdes1K9WMZz-1" value="" style="rounded=1;whiteSpace=wrap;html=1;fillColor=none;strokeColor=#0066cc;strokeWidth=3;" parent="1" vertex="1">
          <mxGeometry x="44" y="50" width="726" height="810" as="geometry" />
        </mxCell>
        <mxCell id="Hs0S0FrEEPC3Yx8ECl2e-50" value="" style="rounded=1;whiteSpace=wrap;html=1;fillColor=none;fontColor=#ffffff;strokeColor=#006EAF;strokeWidth=4;" vertex="1" parent="1">
          <mxGeometry x="79" y="520" width="650" height="300" as="geometry" />
        </mxCell>
        <mxCell id="Hs0S0FrEEPC3Yx8ECl2e-44" value="" style="rounded=1;whiteSpace=wrap;html=1;fillColor=none;fontColor=#ffffff;strokeColor=#006EAF;strokeWidth=4;" vertex="1" parent="1">
          <mxGeometry x="80" y="330" width="650" height="170" as="geometry" />
        </mxCell>
        <mxCell id="M41f0v_ypMdes1K9WMZz-5" value="" style="rounded=1;whiteSpace=wrap;html=1;fillColor=none;fontColor=#ffffff;strokeColor=#006EAF;strokeWidth=4;" parent="1" vertex="1">
          <mxGeometry x="80" y="140" width="650" height="170" as="geometry" />
        </mxCell>
        <mxCell id="Hs0S0FrEEPC3Yx8ECl2e-10" value="" style="group;fillColor=default;strokeColor=none;" vertex="1" connectable="0" parent="1">
          <mxGeometry x="520" y="200" width="170" height="90" as="geometry" />
        </mxCell>
        <mxCell id="M41f0v_ypMdes1K9WMZz-22" value="Multerjs" style="rounded=1;whiteSpace=wrap;html=1;labelPosition=center;verticalLabelPosition=middle;align=center;verticalAlign=bottom;fillColor=default;" parent="Hs0S0FrEEPC3Yx8ECl2e-10" vertex="1">
          <mxGeometry width="170" height="90" as="geometry" />
        </mxCell>
        <mxCell id="Hs0S0FrEEPC3Yx8ECl2e-9" value="" style="shape=image;verticalLabelPosition=bottom;labelBackgroundColor=default;verticalAlign=top;aspect=fixed;imageAspect=0;image=https://miro.medium.com/v2/resize:fit:1358/1*QTZvtnHWanNxBQBynhtlIA.png;clipPath=inset(12.67% 17.33% 9.33% 15.33%);" vertex="1" parent="Hs0S0FrEEPC3Yx8ECl2e-10">
          <mxGeometry x="41" y="10.25" width="94.53" height="54.75" as="geometry" />
        </mxCell>
        <mxCell id="Hs0S0FrEEPC3Yx8ECl2e-11" value="" style="group" vertex="1" connectable="0" parent="1">
          <mxGeometry x="320" y="390" width="170" height="90" as="geometry" />
        </mxCell>
        <mxCell id="Hs0S0FrEEPC3Yx8ECl2e-46" value="" style="group" vertex="1" connectable="0" parent="Hs0S0FrEEPC3Yx8ECl2e-11">
          <mxGeometry width="170" height="90" as="geometry" />
        </mxCell>
        <mxCell id="M41f0v_ypMdes1K9WMZz-21" value="Express" style="rounded=1;whiteSpace=wrap;html=1;verticalAlign=bottom;" parent="Hs0S0FrEEPC3Yx8ECl2e-46" vertex="1">
          <mxGeometry width="170" height="90" as="geometry" />
        </mxCell>
        <mxCell id="Hs0S0FrEEPC3Yx8ECl2e-2" value="" style="shape=image;verticalLabelPosition=bottom;labelBackgroundColor=default;verticalAlign=top;aspect=fixed;imageAspect=0;image=https://www.jacobsoft.com.mx/wp-content/uploads/2020/04/node-js-736399_960_720-2.png;" vertex="1" parent="Hs0S0FrEEPC3Yx8ECl2e-46">
          <mxGeometry x="33.75" y="10" width="102.5" height="51.25" as="geometry" />
        </mxCell>
        <mxCell id="Hs0S0FrEEPC3Yx8ECl2e-12" value="" style="group" vertex="1" connectable="0" parent="1">
          <mxGeometry x="120" y="390" width="170" height="90" as="geometry" />
        </mxCell>
        <mxCell id="M41f0v_ypMdes1K9WMZz-20" value="Node.js" style="rounded=1;whiteSpace=wrap;html=1;verticalAlign=bottom;" parent="Hs0S0FrEEPC3Yx8ECl2e-12" vertex="1">
          <mxGeometry width="170" height="90" as="geometry" />
        </mxCell>
        <mxCell id="Hs0S0FrEEPC3Yx8ECl2e-4" value="" style="shape=image;verticalLabelPosition=bottom;labelBackgroundColor=default;verticalAlign=top;aspect=fixed;imageAspect=0;image=https://miro.medium.com/v2/resize:fit:800/1*bc9pmTiyKR0WNPka2w3e0Q.png;" vertex="1" parent="Hs0S0FrEEPC3Yx8ECl2e-12">
          <mxGeometry x="52.25" y="4.5" width="65.5" height="65.5" as="geometry" />
        </mxCell>
        <mxCell id="Hs0S0FrEEPC3Yx8ECl2e-13" value="" style="group" vertex="1" connectable="0" parent="1">
          <mxGeometry x="120" y="180" width="170" height="90" as="geometry" />
        </mxCell>
        <mxCell id="Hs0S0FrEEPC3Yx8ECl2e-40" value="" style="group" vertex="1" connectable="0" parent="Hs0S0FrEEPC3Yx8ECl2e-13">
          <mxGeometry width="170" height="90" as="geometry" />
        </mxCell>
        <mxCell id="M41f0v_ypMdes1K9WMZz-7" value="API Restful" style="rounded=1;whiteSpace=wrap;html=1;verticalAlign=bottom;" parent="Hs0S0FrEEPC3Yx8ECl2e-40" vertex="1">
          <mxGeometry y="20" width="170" height="90" as="geometry" />
        </mxCell>
        <mxCell id="Hs0S0FrEEPC3Yx8ECl2e-8" value="" style="shape=image;verticalLabelPosition=bottom;labelBackgroundColor=default;verticalAlign=top;aspect=fixed;imageAspect=0;image=https://www.coretech.it/_public/img/video/icon/ApirestFul.png;" vertex="1" parent="Hs0S0FrEEPC3Yx8ECl2e-40">
          <mxGeometry x="44.75" y="25.6" width="80.5" height="64.4" as="geometry" />
        </mxCell>
        <mxCell id="Hs0S0FrEEPC3Yx8ECl2e-28" value="" style="group" vertex="1" connectable="0" parent="1">
          <mxGeometry x="520" y="710" width="170" height="90" as="geometry" />
        </mxCell>
        <mxCell id="M41f0v_ypMdes1K9WMZz-16" value="PDF Parse" style="rounded=1;whiteSpace=wrap;html=1;verticalAlign=bottom;" parent="Hs0S0FrEEPC3Yx8ECl2e-28" vertex="1">
          <mxGeometry width="170" height="90" as="geometry" />
        </mxCell>
        <mxCell id="Hs0S0FrEEPC3Yx8ECl2e-27" value="" style="shape=image;verticalLabelPosition=bottom;labelBackgroundColor=default;verticalAlign=top;aspect=fixed;imageAspect=0;image=https://www.kali.org/tools/pdfid/images/pdfid-logo.svg;" vertex="1" parent="Hs0S0FrEEPC3Yx8ECl2e-28">
          <mxGeometry x="58" y="11.370000000000005" width="54" height="54" as="geometry" />
        </mxCell>
        <mxCell id="Hs0S0FrEEPC3Yx8ECl2e-29" value="" style="group" vertex="1" connectable="0" parent="1">
          <mxGeometry x="120" y="710" width="170" height="90" as="geometry" />
        </mxCell>
        <mxCell id="M41f0v_ypMdes1K9WMZz-14" value="OCR space api wrapper" style="rounded=1;whiteSpace=wrap;html=1;verticalAlign=bottom;" parent="Hs0S0FrEEPC3Yx8ECl2e-29" vertex="1">
          <mxGeometry width="170" height="90" as="geometry" />
        </mxCell>
        <mxCell id="Hs0S0FrEEPC3Yx8ECl2e-25" value="" style="shape=image;verticalLabelPosition=bottom;labelBackgroundColor=default;verticalAlign=top;aspect=fixed;imageAspect=0;image=https://www.nobbot.com/wp-content/uploads/2022/03/ICONO_ocr_E.jpg;" vertex="1" parent="Hs0S0FrEEPC3Yx8ECl2e-29">
          <mxGeometry x="53" y="6.559999999999945" width="64" height="64" as="geometry" />
        </mxCell>
        <mxCell id="Hs0S0FrEEPC3Yx8ECl2e-30" value="" style="group" vertex="1" connectable="0" parent="1">
          <mxGeometry x="320" y="710" width="170" height="90" as="geometry" />
        </mxCell>
        <mxCell id="M41f0v_ypMdes1K9WMZz-13" value="Amazon S3 Bucket" style="rounded=1;whiteSpace=wrap;html=1;verticalAlign=bottom;" parent="Hs0S0FrEEPC3Yx8ECl2e-30" vertex="1">
          <mxGeometry width="170" height="90" as="geometry" />
        </mxCell>
        <mxCell id="Hs0S0FrEEPC3Yx8ECl2e-21" value="" style="shape=image;verticalLabelPosition=bottom;labelBackgroundColor=default;verticalAlign=top;aspect=fixed;imageAspect=0;image=https://static-00.iconduck.com/assets.00/storage-amazons3-bucketwithobjects-icon-495x512-tn4srnl2.png;" vertex="1" parent="Hs0S0FrEEPC3Yx8ECl2e-30">
          <mxGeometry x="57.75" y="11.370000000000005" width="54.5" height="56.38" as="geometry" />
        </mxCell>
        <mxCell id="Hs0S0FrEEPC3Yx8ECl2e-31" value="" style="group" vertex="1" connectable="0" parent="1">
          <mxGeometry x="320" y="600" width="170" height="90" as="geometry" />
        </mxCell>
        <mxCell id="Hs0S0FrEEPC3Yx8ECl2e-32" value="Express" style="rounded=1;whiteSpace=wrap;html=1;verticalAlign=bottom;" vertex="1" parent="Hs0S0FrEEPC3Yx8ECl2e-31">
          <mxGeometry width="170" height="90" as="geometry" />
        </mxCell>
        <mxCell id="Hs0S0FrEEPC3Yx8ECl2e-33" value="" style="shape=image;verticalLabelPosition=bottom;labelBackgroundColor=default;verticalAlign=top;aspect=fixed;imageAspect=0;image=https://www.jacobsoft.com.mx/wp-content/uploads/2020/04/node-js-736399_960_720-2.png;" vertex="1" parent="Hs0S0FrEEPC3Yx8ECl2e-31">
          <mxGeometry x="33.75" y="10" width="102.5" height="51.25" as="geometry" />
        </mxCell>
        <mxCell id="Hs0S0FrEEPC3Yx8ECl2e-34" value="" style="group" vertex="1" connectable="0" parent="1">
          <mxGeometry x="520" y="600" width="170" height="90" as="geometry" />
        </mxCell>
        <mxCell id="Hs0S0FrEEPC3Yx8ECl2e-35" value="Node.js" style="rounded=1;whiteSpace=wrap;html=1;verticalAlign=bottom;" vertex="1" parent="Hs0S0FrEEPC3Yx8ECl2e-34">
          <mxGeometry width="170" height="90" as="geometry" />
        </mxCell>
        <mxCell id="Hs0S0FrEEPC3Yx8ECl2e-36" value="" style="shape=image;verticalLabelPosition=bottom;labelBackgroundColor=default;verticalAlign=top;aspect=fixed;imageAspect=0;image=https://miro.medium.com/v2/resize:fit:800/1*bc9pmTiyKR0WNPka2w3e0Q.png;" vertex="1" parent="Hs0S0FrEEPC3Yx8ECl2e-34">
          <mxGeometry x="52.25" y="4.5" width="65.5" height="65.5" as="geometry" />
        </mxCell>
        <mxCell id="Hs0S0FrEEPC3Yx8ECl2e-38" value="" style="group" vertex="1" connectable="0" parent="1">
          <mxGeometry x="120" y="600" width="170" height="90" as="geometry" />
        </mxCell>
        <mxCell id="M41f0v_ypMdes1K9WMZz-15" value="Pg (PostgreODBC)" style="rounded=1;whiteSpace=wrap;html=1;verticalAlign=bottom;" parent="Hs0S0FrEEPC3Yx8ECl2e-38" vertex="1">
          <mxGeometry width="170" height="90" as="geometry" />
        </mxCell>
        <mxCell id="Hs0S0FrEEPC3Yx8ECl2e-26" value="" style="shape=image;verticalLabelPosition=bottom;labelBackgroundColor=default;verticalAlign=top;aspect=fixed;imageAspect=0;image=https://tecnitium.com/wp-content/uploads/2023/08/postgresql-logo.png;" vertex="1" parent="Hs0S0FrEEPC3Yx8ECl2e-38">
          <mxGeometry x="48" y="3" width="69.06" height="63.12" as="geometry" />
        </mxCell>
        <mxCell id="Hs0S0FrEEPC3Yx8ECl2e-39" value="&lt;font style=&quot;font-size: 23px;&quot;&gt;&lt;b&gt;Client&lt;/b&gt;&lt;/font&gt;" style="rounded=1;whiteSpace=wrap;html=1;fillColor=#1ba1e2;fontColor=#ffffff;strokeColor=none;strokeWidth=4;shadow=1;" vertex="1" parent="1">
          <mxGeometry x="98" y="150" width="612" height="40" as="geometry" />
        </mxCell>
        <mxCell id="Hs0S0FrEEPC3Yx8ECl2e-41" value="" style="group" vertex="1" connectable="0" parent="1">
          <mxGeometry x="320" y="199.37" width="170" height="90" as="geometry" />
        </mxCell>
        <mxCell id="Hs0S0FrEEPC3Yx8ECl2e-15" value="Express" style="rounded=1;whiteSpace=wrap;html=1;verticalAlign=bottom;" vertex="1" parent="Hs0S0FrEEPC3Yx8ECl2e-41">
          <mxGeometry width="170" height="90" as="geometry" />
        </mxCell>
        <mxCell id="Hs0S0FrEEPC3Yx8ECl2e-16" value="" style="shape=image;verticalLabelPosition=bottom;labelBackgroundColor=default;verticalAlign=top;aspect=fixed;imageAspect=0;image=https://www.jacobsoft.com.mx/wp-content/uploads/2020/04/node-js-736399_960_720-2.png;" vertex="1" parent="Hs0S0FrEEPC3Yx8ECl2e-41">
          <mxGeometry x="33.75" y="19.379999999999995" width="102.5" height="51.25" as="geometry" />
        </mxCell>
        <mxCell id="Hs0S0FrEEPC3Yx8ECl2e-43" value="&lt;font style=&quot;font-size: 23px;&quot;&gt;&lt;b&gt;PASSI DOCS&lt;/b&gt;&lt;/font&gt;" style="rounded=1;whiteSpace=wrap;html=1;fillColor=#0066CC;fontColor=#ffffff;strokeColor=none;strokeWidth=4;shadow=1;" vertex="1" parent="1">
          <mxGeometry x="97" y="85" width="623" height="40" as="geometry" />
        </mxCell>
        <mxCell id="Hs0S0FrEEPC3Yx8ECl2e-45" value="&lt;font style=&quot;font-size: 23px;&quot;&gt;&lt;b&gt;Middleware&lt;/b&gt;&lt;/font&gt;" style="rounded=1;whiteSpace=wrap;html=1;fillColor=#1ba1e2;fontColor=#ffffff;strokeColor=none;strokeWidth=4;shadow=1;" vertex="1" parent="1">
          <mxGeometry x="98" y="340" width="612" height="40" as="geometry" />
        </mxCell>
        <mxCell id="Hs0S0FrEEPC3Yx8ECl2e-47" value="" style="group;fillColor=default;strokeColor=none;" vertex="1" connectable="0" parent="1">
          <mxGeometry x="520" y="390" width="170" height="90" as="geometry" />
        </mxCell>
        <mxCell id="Hs0S0FrEEPC3Yx8ECl2e-48" value="Multerjs" style="rounded=1;whiteSpace=wrap;html=1;labelPosition=center;verticalLabelPosition=middle;align=center;verticalAlign=bottom;fillColor=default;" vertex="1" parent="Hs0S0FrEEPC3Yx8ECl2e-47">
          <mxGeometry width="170" height="90" as="geometry" />
        </mxCell>
        <mxCell id="Hs0S0FrEEPC3Yx8ECl2e-49" value="" style="shape=image;verticalLabelPosition=bottom;labelBackgroundColor=default;verticalAlign=top;aspect=fixed;imageAspect=0;image=https://miro.medium.com/v2/resize:fit:1358/1*QTZvtnHWanNxBQBynhtlIA.png;clipPath=inset(12.67% 17.33% 9.33% 15.33%);" vertex="1" parent="Hs0S0FrEEPC3Yx8ECl2e-47">
          <mxGeometry x="41" y="10.25" width="94.53" height="54.75" as="geometry" />
        </mxCell>
        <mxCell id="Hs0S0FrEEPC3Yx8ECl2e-51" value="&lt;font style=&quot;font-size: 23px;&quot;&gt;&lt;b&gt;Server&lt;/b&gt;&lt;/font&gt;" style="rounded=1;whiteSpace=wrap;html=1;fillColor=#1ba1e2;fontColor=#ffffff;strokeColor=none;strokeWidth=4;shadow=1;" vertex="1" parent="1">
          <mxGeometry x="99" y="540" width="612" height="40" as="geometry" />
        </mxCell>
      </root>
    </mxGraphModel>
  </diagram>
</mxfile>
